<svg width="810" height="247" viewBox="0 0 810 247" fill="none" xmlns="http://www.w3.org/2000/svg">
<path d="M4.0696 11.2514V25.7969H1.43466V11.2514H4.0696ZM9.38033 19.4048V25.7969H6.8093V14.8878H9.26669V16.7415H9.39453C9.64548 16.1307 10.0456 15.6454 10.5948 15.2855C11.1488 14.9257 11.833 14.7457 12.6474 14.7457C13.4002 14.7457 14.056 14.9067 14.6147 15.2287C15.1781 15.5507 15.6138 16.017 15.9215 16.6278C16.234 17.2386 16.3879 17.9796 16.3832 18.8509V25.7969H13.8121V19.2486C13.8121 18.5194 13.6228 17.9489 13.244 17.5369C12.8699 17.125 12.3514 16.919 11.6886 16.919C11.2388 16.919 10.8387 17.0185 10.4883 17.2173C10.1426 17.4115 9.87038 17.6932 9.67152 18.0625C9.47739 18.4318 9.38033 18.8793 9.38033 19.4048ZM18.9968 25.7969V14.8878H21.5678V25.7969H18.9968ZM20.2894 13.3395C19.8822 13.3395 19.5318 13.2045 19.2383 12.9347C18.9447 12.66 18.7979 12.331 18.7979 11.9474C18.7979 11.5592 18.9447 11.2301 19.2383 10.9602C19.5318 10.6856 19.8822 10.5483 20.2894 10.5483C20.7013 10.5483 21.0517 10.6856 21.3406 10.9602C21.6341 11.2301 21.7809 11.5592 21.7809 11.9474C21.7809 12.331 21.6341 12.66 21.3406 12.9347C21.0517 13.2045 20.7013 13.3395 20.2894 13.3395ZM29.6591 14.8878V16.8764H23.3878V14.8878H29.6591ZM24.9361 12.2741H27.5071V22.5156C27.5071 22.8613 27.5592 23.1264 27.6634 23.3111C27.7723 23.491 27.9143 23.6141 28.0895 23.6804C28.2647 23.7467 28.4588 23.7798 28.6719 23.7798C28.8329 23.7798 28.9796 23.768 29.1122 23.7443C29.2495 23.7206 29.3537 23.6993 29.4247 23.6804L29.858 25.6903C29.7206 25.7377 29.5241 25.7898 29.2685 25.8466C29.0175 25.9034 28.7098 25.9366 28.3452 25.946C27.7012 25.965 27.1212 25.8679 26.6051 25.6548C26.089 25.437 25.6795 25.1009 25.3764 24.6463C25.0781 24.1918 24.9313 23.6236 24.9361 22.9418V12.2741ZM31.8093 25.7969V14.8878H34.3803V25.7969H31.8093ZM33.1019 13.3395C32.6947 13.3395 32.3443 13.2045 32.0508 12.9347C31.7572 12.66 31.6104 12.331 31.6104 11.9474C31.6104 11.5592 31.7572 11.2301 32.0508 10.9602C32.3443 10.6856 32.6947 10.5483 33.1019 10.5483C33.5138 10.5483 33.8642 10.6856 34.1531 10.9602C34.4466 11.2301 34.5934 11.5592 34.5934 11.9474C34.5934 12.331 34.4466 12.66 34.1531 12.9347C33.8642 13.2045 33.5138 13.3395 33.1019 13.3395ZM40.1634 26.017C39.4721 26.017 38.8494 25.8939 38.2955 25.6477C37.7462 25.3968 37.3106 25.0275 36.9886 24.5398C36.6714 24.0521 36.5128 23.4508 36.5128 22.7358C36.5128 22.1203 36.6264 21.6113 36.8537 21.2088C37.081 20.8063 37.3911 20.4844 37.7841 20.2429C38.1771 20.0014 38.6198 19.8191 39.1122 19.696C39.6094 19.5682 40.1231 19.4759 40.6534 19.419C41.2926 19.3527 41.8111 19.2936 42.2088 19.2415C42.6065 19.1847 42.8954 19.0994 43.0753 18.9858C43.2599 18.8674 43.3523 18.6851 43.3523 18.4389V18.3963C43.3523 17.8613 43.1937 17.447 42.8764 17.1534C42.5592 16.8598 42.1023 16.7131 41.5057 16.7131C40.8759 16.7131 40.3764 16.8504 40.0071 17.125C39.6425 17.3996 39.3963 17.724 39.2685 18.098L36.8679 17.7571C37.0573 17.0942 37.3698 16.5402 37.8054 16.0952C38.241 15.6454 38.7737 15.3092 39.4034 15.0866C40.0331 14.8594 40.7292 14.7457 41.4915 14.7457C42.017 14.7457 42.5402 14.8073 43.0611 14.9304C43.5819 15.0535 44.0578 15.2571 44.4886 15.5412C44.9195 15.8205 45.2652 16.2017 45.5256 16.6847C45.7907 17.1676 45.9233 17.7713 45.9233 18.4957V25.7969H43.4517V24.2983H43.3665C43.2102 24.6013 42.9901 24.8854 42.706 25.1506C42.4266 25.411 42.0739 25.6217 41.6477 25.7827C41.2263 25.9389 40.7315 26.017 40.1634 26.017ZM40.831 24.1278C41.3471 24.1278 41.7945 24.026 42.1733 23.8224C42.5521 23.6141 42.8433 23.3395 43.0469 22.9986C43.2552 22.6577 43.3594 22.286 43.3594 21.8835V20.598C43.2789 20.6643 43.1416 20.7259 42.9474 20.7827C42.758 20.8395 42.545 20.8892 42.3082 20.9318C42.0715 20.9744 41.8371 21.0123 41.6051 21.0455C41.3731 21.0786 41.1719 21.107 41.0014 21.1307C40.6179 21.1828 40.2746 21.268 39.9716 21.3864C39.6686 21.5047 39.4295 21.6705 39.2543 21.8835C39.0791 22.0919 38.9915 22.3617 38.9915 22.6932C38.9915 23.1667 39.1643 23.5241 39.5099 23.7656C39.8556 24.0071 40.2959 24.1278 40.831 24.1278ZM51.0795 11.2514V25.7969H48.5085V11.2514H51.0795ZM63.7269 25.7969H58.7979V11.2514H63.8263C65.2705 11.2514 66.511 11.5426 67.5479 12.125C68.5896 12.7027 69.3898 13.5336 69.9485 14.6179C70.5072 15.7022 70.7866 16.9995 70.7866 18.5099C70.7866 20.0251 70.5049 21.3272 69.9414 22.4162C69.3827 23.5052 68.5754 24.3409 67.5195 24.9233C66.4684 25.5057 65.2042 25.7969 63.7269 25.7969ZM61.4329 23.517H63.5991C64.6123 23.517 65.4575 23.3324 66.1346 22.9631C66.8117 22.589 67.3207 22.0327 67.6616 21.294C68.0025 20.5507 68.1729 19.6226 68.1729 18.5099C68.1729 17.3973 68.0025 16.474 67.6616 15.7401C67.3207 15.0014 66.8164 14.4498 66.1488 14.0852C65.4859 13.7159 64.6621 13.5312 63.6772 13.5312H61.4329V23.517ZM73.1765 25.7969V14.8878H75.7475V25.7969H73.1765ZM74.4691 13.3395C74.0619 13.3395 73.7115 13.2045 73.418 12.9347C73.1244 12.66 72.9776 12.331 72.9776 11.9474C72.9776 11.5592 73.1244 11.2301 73.418 10.9602C73.7115 10.6856 74.0619 10.5483 74.4691 10.5483C74.881 10.5483 75.2314 10.6856 75.5202 10.9602C75.8138 11.2301 75.9606 11.5592 75.9606 11.9474C75.9606 12.331 75.8138 12.66 75.5202 12.9347C75.2314 13.2045 74.881 13.3395 74.4691 13.3395ZM87.0135 17.7713L84.6697 18.027C84.6035 17.7902 84.4875 17.5677 84.3217 17.3594C84.1607 17.151 83.9429 16.983 83.6683 16.8551C83.3937 16.7273 83.0575 16.6634 82.6598 16.6634C82.1248 16.6634 81.675 16.7794 81.3104 17.0114C80.9505 17.2434 80.773 17.544 80.7777 17.9134C80.773 18.2306 80.889 18.4886 81.1257 18.6875C81.3672 18.8864 81.7649 19.0497 82.3189 19.1776L84.1797 19.5753C85.2119 19.7978 85.9789 20.1506 86.4808 20.6335C86.9875 21.1165 87.2431 21.7486 87.2479 22.5298C87.2431 23.2164 87.0419 23.8224 86.6442 24.348C86.2512 24.8688 85.7043 25.276 85.0036 25.5696C84.3028 25.8632 83.4979 26.0099 82.5888 26.0099C81.2536 26.0099 80.1787 25.7306 79.3643 25.1719C78.55 24.6084 78.0646 23.8248 77.9084 22.821L80.4155 22.5795C80.5291 23.072 80.7706 23.4437 81.1399 23.6946C81.5092 23.9455 81.9898 24.071 82.5817 24.071C83.1925 24.071 83.6825 23.9455 84.0518 23.6946C84.4259 23.4437 84.6129 23.1335 84.6129 22.7642C84.6129 22.4517 84.4922 22.1937 84.2507 21.9901C84.014 21.7865 83.6446 21.6302 83.1428 21.5213L81.282 21.1307C80.2356 20.9129 79.4614 20.5459 78.9595 20.0298C78.4576 19.509 78.209 18.8509 78.2138 18.0554C78.209 17.383 78.3913 16.8007 78.7607 16.3082C79.1347 15.8111 79.6532 15.4276 80.3161 15.1577C80.9837 14.883 81.7531 14.7457 82.6243 14.7457C83.9027 14.7457 84.9089 15.018 85.6428 15.5625C86.3814 16.107 86.8383 16.8433 87.0135 17.7713ZM94.8153 14.8878V16.8764H88.544V14.8878H94.8153ZM90.0923 12.2741H92.6634V22.5156C92.6634 22.8613 92.7154 23.1264 92.8196 23.3111C92.9285 23.491 93.0705 23.6141 93.2457 23.6804C93.4209 23.7467 93.6151 23.7798 93.8281 23.7798C93.9891 23.7798 94.1359 23.768 94.2685 23.7443C94.4058 23.7206 94.5099 23.6993 94.581 23.6804L95.0142 25.6903C94.8769 25.7377 94.6804 25.7898 94.4247 25.8466C94.1738 25.9034 93.866 25.9366 93.5014 25.946C92.8575 25.965 92.2775 25.8679 91.7614 25.6548C91.2453 25.437 90.8357 25.1009 90.5327 24.6463C90.2344 24.1918 90.0876 23.6236 90.0923 22.9418V12.2741ZM96.9656 25.7969V14.8878H99.4585V16.706H99.5721C99.771 16.0762 100.112 15.5909 100.595 15.25C101.083 14.9044 101.639 14.7315 102.264 14.7315C102.406 14.7315 102.565 14.7386 102.74 14.7528C102.92 14.7623 103.069 14.7789 103.187 14.8026V17.1676C103.078 17.1297 102.905 17.0966 102.669 17.0682C102.437 17.035 102.212 17.0185 101.994 17.0185C101.525 17.0185 101.104 17.1203 100.73 17.3239C100.36 17.5227 100.069 17.7997 99.8562 18.1548C99.6431 18.5099 99.5366 18.9195 99.5366 19.3835V25.7969H96.9656ZM104.895 25.7969V14.8878H107.466V25.7969H104.895ZM106.188 13.3395C105.781 13.3395 105.43 13.2045 105.137 12.9347C104.843 12.66 104.696 12.331 104.696 11.9474C104.696 11.5592 104.843 11.2301 105.137 10.9602C105.43 10.6856 105.781 10.5483 106.188 10.5483C106.6 10.5483 106.95 10.6856 107.239 10.9602C107.533 11.2301 107.679 11.5592 107.679 11.9474C107.679 12.331 107.533 12.66 107.239 12.9347C106.95 13.2045 106.6 13.3395 106.188 13.3395ZM110.224 25.7969V11.2514H112.795V16.6918H112.901C113.034 16.4266 113.221 16.1449 113.462 15.8466C113.704 15.5436 114.031 15.2855 114.442 15.0724C114.854 14.8546 115.38 14.7457 116.019 14.7457C116.862 14.7457 117.622 14.9612 118.299 15.392C118.981 15.8182 119.521 16.4503 119.918 17.2884C120.321 18.1217 120.522 19.1444 120.522 20.3565C120.522 21.5545 120.326 22.5724 119.933 23.4105C119.54 24.2486 119.004 24.8878 118.327 25.3281C117.65 25.7685 116.883 25.9886 116.026 25.9886C115.401 25.9886 114.883 25.8845 114.471 25.6761C114.059 25.4678 113.728 25.2169 113.477 24.9233C113.23 24.625 113.039 24.3433 112.901 24.0781H112.752V25.7969H110.224ZM112.745 20.3423C112.745 21.0478 112.844 21.6657 113.043 22.196C113.247 22.7263 113.538 23.1406 113.917 23.4389C114.3 23.7325 114.764 23.8793 115.309 23.8793C115.877 23.8793 116.353 23.7277 116.737 23.4247C117.12 23.117 117.409 22.6979 117.603 22.1676C117.802 21.6326 117.901 21.0241 117.901 20.3423C117.901 19.6652 117.804 19.0639 117.61 18.5384C117.416 18.0128 117.127 17.6009 116.744 17.3026C116.36 17.0043 115.882 16.8551 115.309 16.8551C114.76 16.8551 114.293 16.9995 113.91 17.2884C113.526 17.5772 113.235 17.982 113.036 18.5028C112.842 19.0237 112.745 19.6368 112.745 20.3423ZM129.661 21.2088V14.8878H132.232V25.7969H129.739V23.858H129.625C129.379 24.4687 128.974 24.9683 128.411 25.3565C127.852 25.7448 127.163 25.9389 126.344 25.9389C125.629 25.9389 124.997 25.7803 124.448 25.4631C123.903 25.1411 123.477 24.6747 123.169 24.0639C122.862 23.4484 122.708 22.705 122.708 21.8338V14.8878H125.279V21.4361C125.279 22.1274 125.468 22.6766 125.847 23.0838C126.226 23.491 126.723 23.6946 127.338 23.6946C127.717 23.6946 128.084 23.6023 128.439 23.4176C128.794 23.233 129.086 22.9583 129.313 22.5938C129.545 22.2244 129.661 21.7628 129.661 21.2088ZM140.323 14.8878V16.8764H134.052V14.8878H140.323ZM135.6 12.2741H138.171V22.5156C138.171 22.8613 138.223 23.1264 138.327 23.3111C138.436 23.491 138.578 23.6141 138.754 23.6804C138.929 23.7467 139.123 23.7798 139.336 23.7798C139.497 23.7798 139.644 23.768 139.776 23.7443C139.914 23.7206 140.018 23.6993 140.089 23.6804L140.522 25.6903C140.385 25.7377 140.188 25.7898 139.933 25.8466C139.682 25.9034 139.374 25.9366 139.009 25.946C138.365 25.965 137.785 25.8679 137.269 25.6548C136.753 25.437 136.344 25.1009 136.04 24.6463C135.742 24.1918 135.595 23.6236 135.6 22.9418V12.2741ZM142.473 25.7969V14.8878H145.044V25.7969H142.473ZM143.766 13.3395C143.359 13.3395 143.008 13.2045 142.715 12.9347C142.421 12.66 142.275 12.331 142.275 11.9474C142.275 11.5592 142.421 11.2301 142.715 10.9602C143.008 10.6856 143.359 10.5483 143.766 10.5483C144.178 10.5483 144.528 10.6856 144.817 10.9602C145.111 11.2301 145.257 11.5592 145.257 11.9474C145.257 12.331 145.111 12.66 144.817 12.9347C144.528 13.2045 144.178 13.3395 143.766 13.3395ZM152.447 26.0099C151.381 26.0099 150.458 25.7756 149.677 25.3068C148.896 24.8381 148.29 24.1823 147.859 23.3395C147.433 22.4967 147.219 21.5118 147.219 20.3849C147.219 19.258 147.433 18.2708 147.859 17.4233C148.29 16.5758 148.896 15.9176 149.677 15.4489C150.458 14.9801 151.381 14.7457 152.447 14.7457C153.512 14.7457 154.435 14.9801 155.217 15.4489C155.998 15.9176 156.602 16.5758 157.028 17.4233C157.459 18.2708 157.674 19.258 157.674 20.3849C157.674 21.5118 157.459 22.4967 157.028 23.3395C156.602 24.1823 155.998 24.8381 155.217 25.3068C154.435 25.7756 153.512 26.0099 152.447 26.0099ZM152.461 23.9503C153.039 23.9503 153.522 23.7917 153.91 23.4744C154.298 23.1525 154.587 22.7216 154.776 22.1818C154.97 21.642 155.067 21.0407 155.067 20.3778C155.067 19.7102 154.97 19.1065 154.776 18.5668C154.587 18.0223 154.298 17.589 153.91 17.267C153.522 16.9451 153.039 16.7841 152.461 16.7841C151.869 16.7841 151.377 16.9451 150.984 17.267C150.595 17.589 150.304 18.0223 150.11 18.5668C149.921 19.1065 149.826 19.7102 149.826 20.3778C149.826 21.0407 149.921 21.642 150.11 22.1818C150.304 22.7216 150.595 23.1525 150.984 23.4744C151.377 23.7917 151.869 23.9503 152.461 23.9503ZM162.427 19.4048V25.7969H159.856V14.8878H162.314V16.7415H162.441C162.692 16.1307 163.092 15.6454 163.642 15.2855C164.196 14.9257 164.88 14.7457 165.694 14.7457C166.447 14.7457 167.103 14.9067 167.662 15.2287C168.225 15.5507 168.661 16.017 168.968 16.6278C169.281 17.2386 169.435 17.9796 169.43 18.8509V25.7969H166.859V19.2486C166.859 18.5194 166.67 17.9489 166.291 17.5369C165.917 17.125 165.398 16.919 164.735 16.919C164.286 16.919 163.886 17.0185 163.535 17.2173C163.19 17.4115 162.917 17.6932 162.718 18.0625C162.524 18.4318 162.427 18.8793 162.427 19.4048Z" fill="#1D1D1D"/>
<rect x="203" y="117.797" width="12" height="12" rx="6" fill="#0082FF"/>
<path d="M234.773 121.797H233.364C233.28 121.392 233.134 121.036 232.926 120.729C232.722 120.422 232.472 120.164 232.176 119.956C231.884 119.744 231.561 119.585 231.205 119.479C230.848 119.373 230.477 119.32 230.091 119.32C229.386 119.32 228.748 119.498 228.176 119.854C227.608 120.21 227.155 120.734 226.818 121.428C226.485 122.121 226.318 122.971 226.318 123.979C226.318 124.986 226.485 125.837 226.818 126.53C227.155 127.223 227.608 127.748 228.176 128.104C228.748 128.46 229.386 128.638 230.091 128.638C230.477 128.638 230.848 128.585 231.205 128.479C231.561 128.373 231.884 128.215 232.176 128.007C232.472 127.795 232.722 127.536 232.926 127.229C233.134 126.918 233.28 126.562 233.364 126.161H234.773C234.667 126.755 234.473 127.287 234.193 127.757C233.913 128.227 233.564 128.626 233.148 128.956C232.731 129.282 232.263 129.53 231.744 129.7C231.229 129.871 230.678 129.956 230.091 129.956C229.098 129.956 228.216 129.714 227.443 129.229C226.67 128.744 226.063 128.054 225.619 127.161C225.176 126.267 224.955 125.206 224.955 123.979C224.955 122.751 225.176 121.691 225.619 120.797C226.063 119.903 226.67 119.214 227.443 118.729C228.216 118.244 229.098 118.001 230.091 118.001C230.678 118.001 231.229 118.087 231.744 118.257C232.263 118.428 232.731 118.678 233.148 119.007C233.564 119.333 233.913 119.731 234.193 120.2C234.473 120.666 234.667 121.198 234.773 121.797ZM236.868 129.797V121.07H238.163V122.388H238.254C238.413 121.956 238.701 121.606 239.118 121.337C239.535 121.068 240.004 120.933 240.527 120.933C240.625 120.933 240.749 120.935 240.896 120.939C241.044 120.943 241.156 120.948 241.232 120.956V122.32C241.186 122.308 241.082 122.291 240.919 122.268C240.76 122.242 240.591 122.229 240.413 122.229C239.989 122.229 239.61 122.318 239.277 122.496C238.947 122.67 238.686 122.912 238.493 123.223C238.304 123.53 238.209 123.88 238.209 124.274V129.797H236.868ZM246.101 129.979C245.313 129.979 244.622 129.791 244.027 129.416C243.436 129.041 242.974 128.517 242.641 127.842C242.311 127.168 242.146 126.38 242.146 125.479C242.146 124.57 242.311 123.776 242.641 123.098C242.974 122.42 243.436 121.893 244.027 121.518C244.622 121.143 245.313 120.956 246.101 120.956C246.889 120.956 247.578 121.143 248.169 121.518C248.764 121.893 249.226 122.42 249.555 123.098C249.889 123.776 250.055 124.57 250.055 125.479C250.055 126.38 249.889 127.168 249.555 127.842C249.226 128.517 248.764 129.041 248.169 129.416C247.578 129.791 246.889 129.979 246.101 129.979ZM246.101 128.774C246.699 128.774 247.192 128.621 247.578 128.314C247.964 128.007 248.25 127.604 248.436 127.104C248.622 126.604 248.714 126.062 248.714 125.479C248.714 124.895 248.622 124.352 248.436 123.848C248.25 123.344 247.964 122.937 247.578 122.626C247.192 122.316 246.699 122.161 246.101 122.161C245.502 122.161 245.01 122.316 244.624 122.626C244.237 122.937 243.951 123.344 243.766 123.848C243.58 124.352 243.487 124.895 243.487 125.479C243.487 126.062 243.58 126.604 243.766 127.104C243.951 127.604 244.237 128.007 244.624 128.314C245.01 128.621 245.502 128.774 246.101 128.774ZM253.783 129.797L251.124 121.07H252.533L254.419 127.751H254.51L256.374 121.07H257.805L259.646 127.729H259.737L261.624 121.07H263.033L260.374 129.797H259.055L257.146 123.092H257.01L255.101 129.797H253.783ZM267.804 129.979C267.077 129.979 266.435 129.795 265.878 129.428C265.321 129.056 264.885 128.534 264.571 127.859C264.257 127.181 264.099 126.38 264.099 125.456C264.099 124.539 264.257 123.744 264.571 123.07C264.885 122.395 265.323 121.875 265.884 121.507C266.444 121.14 267.092 120.956 267.827 120.956C268.395 120.956 268.844 121.051 269.173 121.24C269.507 121.426 269.76 121.638 269.935 121.876C270.113 122.111 270.251 122.304 270.349 122.456H270.463V118.161H271.804V129.797H270.509V128.456H270.349C270.251 128.615 270.111 128.816 269.929 129.058C269.747 129.297 269.488 129.511 269.151 129.7C268.813 129.886 268.365 129.979 267.804 129.979ZM267.986 128.774C268.524 128.774 268.978 128.634 269.349 128.354C269.721 128.07 270.003 127.678 270.196 127.178C270.389 126.674 270.486 126.092 270.486 125.433C270.486 124.782 270.391 124.212 270.202 123.723C270.012 123.231 269.732 122.848 269.361 122.575C268.99 122.299 268.531 122.161 267.986 122.161C267.418 122.161 266.944 122.306 266.565 122.598C266.19 122.886 265.908 123.278 265.719 123.774C265.533 124.267 265.44 124.82 265.44 125.433C265.44 126.054 265.535 126.619 265.724 127.126C265.918 127.63 266.202 128.032 266.577 128.331C266.955 128.626 267.425 128.774 267.986 128.774ZM280.628 123.024L279.423 123.365C279.348 123.164 279.236 122.969 279.088 122.78C278.944 122.587 278.747 122.428 278.497 122.303C278.247 122.178 277.927 122.115 277.537 122.115C277.003 122.115 276.558 122.238 276.202 122.484C275.849 122.727 275.673 123.036 275.673 123.411C275.673 123.744 275.795 124.007 276.037 124.2C276.279 124.393 276.658 124.554 277.173 124.683L278.469 125.001C279.249 125.191 279.83 125.481 280.213 125.871C280.596 126.257 280.787 126.755 280.787 127.365C280.787 127.865 280.643 128.312 280.355 128.706C280.071 129.1 279.673 129.411 279.162 129.638C278.651 129.865 278.056 129.979 277.378 129.979C276.488 129.979 275.751 129.786 275.168 129.399C274.584 129.013 274.215 128.448 274.06 127.706L275.332 127.388C275.454 127.857 275.683 128.21 276.02 128.445C276.361 128.679 276.806 128.797 277.355 128.797C277.98 128.797 278.476 128.664 278.844 128.399C279.215 128.13 279.401 127.808 279.401 127.433C279.401 127.13 279.295 126.876 279.082 126.672C278.87 126.464 278.545 126.308 278.105 126.206L276.651 125.865C275.851 125.676 275.264 125.382 274.889 124.984C274.518 124.583 274.332 124.081 274.332 123.479C274.332 122.986 274.471 122.551 274.747 122.172C275.027 121.793 275.408 121.496 275.889 121.28C276.374 121.064 276.923 120.956 277.537 120.956C278.401 120.956 279.079 121.145 279.571 121.524C280.067 121.903 280.42 122.403 280.628 123.024ZM285.374 130.001C284.821 130.001 284.319 129.897 283.868 129.689C283.417 129.477 283.059 129.172 282.794 128.774C282.529 128.373 282.396 127.888 282.396 127.32C282.396 126.82 282.495 126.414 282.692 126.104C282.889 125.789 283.152 125.543 283.482 125.365C283.811 125.187 284.175 125.054 284.572 124.967C284.974 124.876 285.377 124.804 285.783 124.751C286.313 124.683 286.743 124.632 287.072 124.598C287.406 124.56 287.648 124.498 287.8 124.411C287.955 124.323 288.033 124.172 288.033 123.956V123.911C288.033 123.35 287.879 122.914 287.572 122.604C287.269 122.293 286.809 122.138 286.192 122.138C285.552 122.138 285.05 122.278 284.686 122.558C284.322 122.839 284.067 123.138 283.919 123.456L282.646 123.001C282.874 122.471 283.177 122.058 283.555 121.763C283.938 121.464 284.355 121.255 284.805 121.138C285.26 121.017 285.707 120.956 286.146 120.956C286.427 120.956 286.749 120.99 287.112 121.058C287.48 121.123 287.834 121.257 288.175 121.462C288.519 121.666 288.805 121.975 289.033 122.388C289.26 122.801 289.374 123.354 289.374 124.047V129.797H288.033V128.615H287.964C287.874 128.804 287.722 129.007 287.51 129.223C287.298 129.439 287.016 129.623 286.663 129.774C286.311 129.926 285.881 130.001 285.374 130.001ZM285.578 128.797C286.108 128.797 286.555 128.693 286.919 128.484C287.286 128.276 287.563 128.007 287.749 127.678C287.938 127.348 288.033 127.001 288.033 126.638V125.411C287.976 125.479 287.851 125.541 287.658 125.598C287.468 125.651 287.249 125.698 286.999 125.74C286.752 125.778 286.512 125.812 286.277 125.842C286.046 125.869 285.858 125.892 285.714 125.911C285.366 125.956 285.04 126.03 284.737 126.132C284.438 126.231 284.196 126.38 284.01 126.581C283.828 126.778 283.737 127.047 283.737 127.388C283.737 127.854 283.91 128.206 284.254 128.445C284.603 128.679 285.044 128.797 285.578 128.797ZM293.162 118.161V129.797H291.821V118.161H293.162ZM299.277 129.979C298.436 129.979 297.711 129.793 297.101 129.422C296.495 129.047 296.027 128.524 295.697 127.854C295.372 127.179 295.209 126.395 295.209 125.501C295.209 124.607 295.372 123.82 295.697 123.138C296.027 122.452 296.485 121.918 297.072 121.536C297.663 121.149 298.353 120.956 299.141 120.956C299.595 120.956 300.044 121.032 300.487 121.183C300.93 121.335 301.334 121.581 301.697 121.922C302.061 122.259 302.351 122.706 302.567 123.263C302.783 123.82 302.891 124.505 302.891 125.32V125.888H296.163V124.729H301.527C301.527 124.236 301.429 123.797 301.232 123.411C301.038 123.024 300.762 122.719 300.402 122.496C300.046 122.272 299.625 122.161 299.141 122.161C298.607 122.161 298.144 122.293 297.754 122.558C297.368 122.82 297.071 123.161 296.862 123.581C296.654 124.001 296.55 124.452 296.55 124.933V125.706C296.55 126.365 296.663 126.924 296.891 127.382C297.122 127.837 297.442 128.183 297.851 128.422C298.26 128.657 298.735 128.774 299.277 128.774C299.629 128.774 299.947 128.725 300.232 128.626C300.519 128.524 300.768 128.373 300.976 128.172C301.184 127.967 301.345 127.714 301.459 127.411L302.754 127.774C302.618 128.214 302.389 128.6 302.067 128.933C301.745 129.263 301.347 129.52 300.874 129.706C300.4 129.888 299.868 129.979 299.277 129.979ZM309.43 129.797V121.07H310.771V129.797H309.43ZM310.112 119.615C309.851 119.615 309.625 119.526 309.436 119.348C309.25 119.17 309.158 118.956 309.158 118.706C309.158 118.456 309.25 118.242 309.436 118.064C309.625 117.886 309.851 117.797 310.112 117.797C310.374 117.797 310.597 117.886 310.783 118.064C310.972 118.242 311.067 118.456 311.067 118.706C311.067 118.956 310.972 119.17 310.783 119.348C310.597 119.526 310.374 119.615 310.112 119.615ZM314.568 124.547V129.797H313.227V121.07H314.523V122.433H314.636C314.841 121.99 315.152 121.634 315.568 121.365C315.985 121.092 316.523 120.956 317.182 120.956C317.773 120.956 318.29 121.077 318.733 121.32C319.176 121.558 319.521 121.922 319.767 122.411C320.013 122.895 320.136 123.509 320.136 124.251V129.797H318.795V124.342C318.795 123.657 318.617 123.123 318.261 122.74C317.905 122.354 317.417 122.161 316.795 122.161C316.367 122.161 315.985 122.253 315.648 122.439C315.314 122.625 315.051 122.895 314.858 123.251C314.665 123.607 314.568 124.039 314.568 124.547ZM329.411 121.07L326.183 129.797H324.82L321.592 121.07H323.047L325.456 128.024H325.547L327.956 121.07H329.411ZM334.527 129.979C333.686 129.979 332.961 129.793 332.351 129.422C331.745 129.047 331.277 128.524 330.947 127.854C330.622 127.179 330.459 126.395 330.459 125.501C330.459 124.607 330.622 123.82 330.947 123.138C331.277 122.452 331.735 121.918 332.322 121.536C332.913 121.149 333.603 120.956 334.391 120.956C334.845 120.956 335.294 121.032 335.737 121.183C336.18 121.335 336.584 121.581 336.947 121.922C337.311 122.259 337.601 122.706 337.817 123.263C338.033 123.82 338.141 124.505 338.141 125.32V125.888H331.413V124.729H336.777C336.777 124.236 336.679 123.797 336.482 123.411C336.288 123.024 336.012 122.719 335.652 122.496C335.296 122.272 334.875 122.161 334.391 122.161C333.857 122.161 333.394 122.293 333.004 122.558C332.618 122.82 332.321 123.161 332.112 123.581C331.904 124.001 331.8 124.452 331.8 124.933V125.706C331.8 126.365 331.913 126.924 332.141 127.382C332.372 127.837 332.692 128.183 333.101 128.422C333.51 128.657 333.985 128.774 334.527 128.774C334.879 128.774 335.197 128.725 335.482 128.626C335.769 128.524 336.018 128.373 336.226 128.172C336.434 127.967 336.595 127.714 336.709 127.411L338.004 127.774C337.868 128.214 337.639 128.6 337.317 128.933C336.995 129.263 336.597 129.52 336.124 129.706C335.65 129.888 335.118 129.979 334.527 129.979ZM346.362 123.024L345.158 123.365C345.082 123.164 344.97 122.969 344.822 122.78C344.679 122.587 344.482 122.428 344.232 122.303C343.982 122.178 343.661 122.115 343.271 122.115C342.737 122.115 342.292 122.238 341.936 122.484C341.584 122.727 341.408 123.036 341.408 123.411C341.408 123.744 341.529 124.007 341.771 124.2C342.014 124.393 342.393 124.554 342.908 124.683L344.203 125.001C344.983 125.191 345.565 125.481 345.947 125.871C346.33 126.257 346.521 126.755 346.521 127.365C346.521 127.865 346.377 128.312 346.089 128.706C345.805 129.1 345.408 129.411 344.896 129.638C344.385 129.865 343.79 129.979 343.112 129.979C342.222 129.979 341.485 129.786 340.902 129.399C340.319 129.013 339.949 128.448 339.794 127.706L341.067 127.388C341.188 127.857 341.417 128.21 341.754 128.445C342.095 128.679 342.54 128.797 343.089 128.797C343.714 128.797 344.211 128.664 344.578 128.399C344.949 128.13 345.135 127.808 345.135 127.433C345.135 127.13 345.029 126.876 344.817 126.672C344.605 126.464 344.279 126.308 343.839 126.206L342.385 125.865C341.586 125.676 340.999 125.382 340.624 124.984C340.252 124.583 340.067 124.081 340.067 123.479C340.067 122.986 340.205 122.551 340.482 122.172C340.762 121.793 341.143 121.496 341.624 121.28C342.108 121.064 342.658 120.956 343.271 120.956C344.135 120.956 344.813 121.145 345.305 121.524C345.802 121.903 346.154 122.403 346.362 123.024ZM352.335 121.07V122.206H347.812V121.07H352.335ZM349.131 118.979H350.472V127.297C350.472 127.676 350.527 127.96 350.636 128.149C350.75 128.335 350.894 128.46 351.068 128.524C351.246 128.585 351.434 128.615 351.631 128.615C351.778 128.615 351.9 128.607 351.994 128.592C352.089 128.573 352.165 128.558 352.222 128.547L352.494 129.751C352.403 129.786 352.277 129.82 352.114 129.854C351.951 129.892 351.744 129.911 351.494 129.911C351.116 129.911 350.744 129.829 350.381 129.666C350.021 129.503 349.722 129.255 349.483 128.922C349.248 128.589 349.131 128.168 349.131 127.661V118.979ZM357.804 129.979C357.016 129.979 356.325 129.791 355.73 129.416C355.139 129.041 354.677 128.517 354.344 127.842C354.014 127.168 353.849 126.38 353.849 125.479C353.849 124.57 354.014 123.776 354.344 123.098C354.677 122.42 355.139 121.893 355.73 121.518C356.325 121.143 357.016 120.956 357.804 120.956C358.592 120.956 359.281 121.143 359.872 121.518C360.467 121.893 360.929 122.42 361.259 123.098C361.592 123.776 361.759 124.57 361.759 125.479C361.759 126.38 361.592 127.168 361.259 127.842C360.929 128.517 360.467 129.041 359.872 129.416C359.281 129.791 358.592 129.979 357.804 129.979ZM357.804 128.774C358.402 128.774 358.895 128.621 359.281 128.314C359.668 128.007 359.954 127.604 360.139 127.104C360.325 126.604 360.418 126.062 360.418 125.479C360.418 124.895 360.325 124.352 360.139 123.848C359.954 123.344 359.668 122.937 359.281 122.626C358.895 122.316 358.402 122.161 357.804 122.161C357.205 122.161 356.713 122.316 356.327 122.626C355.94 122.937 355.654 123.344 355.469 123.848C355.283 124.352 355.19 124.895 355.19 125.479C355.19 126.062 355.283 126.604 355.469 127.104C355.654 127.604 355.94 128.007 356.327 128.314C356.713 128.621 357.205 128.774 357.804 128.774ZM363.805 129.797V121.07H365.101V122.388H365.192C365.351 121.956 365.639 121.606 366.055 121.337C366.472 121.068 366.942 120.933 367.464 120.933C367.563 120.933 367.686 120.935 367.834 120.939C367.982 120.943 368.093 120.948 368.169 120.956V122.32C368.124 122.308 368.019 122.291 367.857 122.268C367.697 122.242 367.529 122.229 367.351 122.229C366.927 122.229 366.548 122.318 366.214 122.496C365.885 122.67 365.624 122.912 365.43 123.223C365.241 123.53 365.146 123.88 365.146 124.274V129.797H363.805ZM375.94 123.024L374.736 123.365C374.66 123.164 374.548 122.969 374.401 122.78C374.257 122.587 374.06 122.428 373.81 122.303C373.56 122.178 373.24 122.115 372.849 122.115C372.315 122.115 371.87 122.238 371.514 122.484C371.162 122.727 370.986 123.036 370.986 123.411C370.986 123.744 371.107 124.007 371.349 124.2C371.592 124.393 371.971 124.554 372.486 124.683L373.781 125.001C374.562 125.191 375.143 125.481 375.526 125.871C375.908 126.257 376.099 126.755 376.099 127.365C376.099 127.865 375.955 128.312 375.668 128.706C375.384 129.1 374.986 129.411 374.474 129.638C373.963 129.865 373.368 129.979 372.69 129.979C371.8 129.979 371.063 129.786 370.48 129.399C369.897 129.013 369.527 128.448 369.372 127.706L370.645 127.388C370.766 127.857 370.995 128.21 371.332 128.445C371.673 128.679 372.118 128.797 372.668 128.797C373.293 128.797 373.789 128.664 374.156 128.399C374.527 128.13 374.713 127.808 374.713 127.433C374.713 127.13 374.607 126.876 374.395 126.672C374.183 126.464 373.857 126.308 373.418 126.206L371.963 125.865C371.164 125.676 370.577 125.382 370.202 124.984C369.83 124.583 369.645 124.081 369.645 123.479C369.645 122.986 369.783 122.551 370.06 122.172C370.34 121.793 370.721 121.496 371.202 121.28C371.687 121.064 372.236 120.956 372.849 120.956C373.713 120.956 374.391 121.145 374.884 121.524C375.38 121.903 375.732 122.403 375.94 123.024ZM379.095 129.888C378.815 129.888 378.574 129.787 378.374 129.587C378.173 129.386 378.072 129.145 378.072 128.865C378.072 128.585 378.173 128.344 378.374 128.143C378.574 127.943 378.815 127.842 379.095 127.842C379.375 127.842 379.616 127.943 379.817 128.143C380.018 128.344 380.118 128.585 380.118 128.865C380.118 129.051 380.071 129.221 379.976 129.376C379.885 129.532 379.762 129.657 379.607 129.751C379.455 129.842 379.285 129.888 379.095 129.888ZM379.095 123.411C378.815 123.411 378.574 123.31 378.374 123.109C378.173 122.909 378.072 122.668 378.072 122.388C378.072 122.107 378.173 121.867 378.374 121.666C378.574 121.465 378.815 121.365 379.095 121.365C379.375 121.365 379.616 121.465 379.817 121.666C380.018 121.867 380.118 122.107 380.118 122.388C380.118 122.573 380.071 122.744 379.976 122.899C379.885 123.054 379.762 123.179 379.607 123.274C379.455 123.365 379.285 123.411 379.095 123.411ZM390.729 129.956C389.948 129.956 389.259 129.818 388.661 129.541C388.066 129.261 387.602 128.876 387.268 128.388C386.935 127.895 386.77 127.335 386.774 126.706C386.77 126.214 386.867 125.759 387.064 125.342C387.261 124.922 387.53 124.571 387.871 124.291C388.215 124.007 388.6 123.827 389.024 123.751V123.683C388.467 123.539 388.024 123.227 387.695 122.746C387.365 122.261 387.202 121.71 387.206 121.092C387.202 120.501 387.352 119.973 387.655 119.507C387.958 119.041 388.375 118.674 388.905 118.405C389.439 118.136 390.047 118.001 390.729 118.001C391.403 118.001 392.005 118.136 392.536 118.405C393.066 118.674 393.482 119.041 393.786 119.507C394.092 119.973 394.248 120.501 394.251 121.092C394.248 121.71 394.079 122.261 393.746 122.746C393.416 123.227 392.979 123.539 392.433 123.683V123.751C392.854 123.827 393.232 124.007 393.57 124.291C393.907 124.571 394.176 124.922 394.376 125.342C394.577 125.759 394.679 126.214 394.683 126.706C394.679 127.335 394.509 127.895 394.172 128.388C393.839 128.876 393.375 129.261 392.78 129.541C392.189 129.818 391.505 129.956 390.729 129.956ZM390.729 128.706C391.255 128.706 391.71 128.621 392.092 128.45C392.475 128.28 392.77 128.039 392.979 127.729C393.187 127.418 393.293 127.054 393.297 126.638C393.293 126.198 393.179 125.81 392.956 125.473C392.732 125.136 392.428 124.871 392.041 124.678C391.659 124.484 391.221 124.388 390.729 124.388C390.232 124.388 389.789 124.484 389.399 124.678C389.013 124.871 388.708 125.136 388.484 125.473C388.265 125.81 388.157 126.198 388.161 126.638C388.157 127.054 388.257 127.418 388.462 127.729C388.67 128.039 388.967 128.28 389.354 128.45C389.74 128.621 390.198 128.706 390.729 128.706ZM390.729 123.183C391.145 123.183 391.515 123.1 391.837 122.933C392.162 122.767 392.418 122.534 392.604 122.234C392.789 121.935 392.884 121.585 392.888 121.183C392.884 120.789 392.791 120.446 392.609 120.155C392.428 119.859 392.176 119.632 391.854 119.473C391.532 119.31 391.157 119.229 390.729 119.229C390.293 119.229 389.912 119.31 389.587 119.473C389.261 119.632 389.009 119.859 388.831 120.155C388.653 120.446 388.566 120.789 388.57 121.183C388.566 121.585 388.655 121.935 388.837 122.234C389.022 122.534 389.278 122.767 389.604 122.933C389.929 123.1 390.304 123.183 390.729 123.183ZM400.656 129.956C399.8 129.956 399.071 129.723 398.469 129.257C397.866 128.787 397.406 128.107 397.088 127.217C396.77 126.323 396.611 125.244 396.611 123.979C396.611 122.721 396.77 121.647 397.088 120.757C397.41 119.863 397.872 119.181 398.474 118.712C399.08 118.238 399.808 118.001 400.656 118.001C401.505 118.001 402.23 118.238 402.832 118.712C403.438 119.181 403.901 119.863 404.219 120.757C404.541 121.647 404.702 122.721 404.702 123.979C404.702 125.244 404.543 126.323 404.224 127.217C403.906 128.107 403.446 128.787 402.844 129.257C402.241 129.723 401.512 129.956 400.656 129.956ZM400.656 128.706C401.505 128.706 402.164 128.297 402.634 127.479C403.103 126.661 403.338 125.494 403.338 123.979C403.338 122.971 403.23 122.113 403.014 121.405C402.802 120.696 402.495 120.157 402.094 119.786C401.696 119.414 401.217 119.229 400.656 119.229C399.815 119.229 399.158 119.643 398.685 120.473C398.211 121.299 397.974 122.467 397.974 123.979C397.974 124.986 398.08 125.842 398.293 126.547C398.505 127.251 398.81 127.787 399.207 128.155C399.609 128.522 400.092 128.706 400.656 128.706ZM412.793 127.615V127.001C412.793 126.577 412.88 126.189 413.054 125.837C413.232 125.481 413.49 125.196 413.827 124.984C414.168 124.768 414.58 124.661 415.065 124.661C415.558 124.661 415.971 124.768 416.304 124.984C416.637 125.196 416.889 125.481 417.06 125.837C417.23 126.189 417.315 126.577 417.315 127.001V127.615C417.315 128.039 417.228 128.429 417.054 128.786C416.884 129.138 416.63 129.422 416.293 129.638C415.959 129.85 415.55 129.956 415.065 129.956C414.573 129.956 414.158 129.85 413.821 129.638C413.484 129.422 413.228 129.138 413.054 128.786C412.88 128.429 412.793 128.039 412.793 127.615ZM413.952 127.001V127.615C413.952 127.967 414.035 128.284 414.202 128.564C414.368 128.84 414.656 128.979 415.065 128.979C415.463 128.979 415.743 128.84 415.906 128.564C416.073 128.284 416.156 127.967 416.156 127.615V127.001C416.156 126.649 416.077 126.335 415.918 126.058C415.759 125.778 415.474 125.638 415.065 125.638C414.668 125.638 414.382 125.778 414.207 126.058C414.037 126.335 413.952 126.649 413.952 127.001ZM406.997 120.956V120.342C406.997 119.918 407.084 119.53 407.259 119.178C407.437 118.821 407.694 118.537 408.031 118.325C408.372 118.109 408.785 118.001 409.27 118.001C409.762 118.001 410.175 118.109 410.509 118.325C410.842 118.537 411.094 118.821 411.264 119.178C411.435 119.53 411.52 119.918 411.52 120.342V120.956C411.52 121.38 411.433 121.77 411.259 122.126C411.088 122.479 410.834 122.763 410.497 122.979C410.164 123.191 409.755 123.297 409.27 123.297C408.777 123.297 408.363 123.191 408.026 122.979C407.688 122.763 407.433 122.479 407.259 122.126C407.084 121.77 406.997 121.38 406.997 120.956ZM408.156 120.342V120.956C408.156 121.308 408.24 121.625 408.406 121.905C408.573 122.181 408.861 122.32 409.27 122.32C409.668 122.32 409.948 122.181 410.111 121.905C410.277 121.625 410.361 121.308 410.361 120.956V120.342C410.361 119.99 410.281 119.676 410.122 119.399C409.963 119.119 409.679 118.979 409.27 118.979C408.872 118.979 408.586 119.119 408.412 119.399C408.241 119.676 408.156 119.99 408.156 120.342ZM407.429 129.797L415.429 118.161H416.724L408.724 129.797H407.429Z" fill="#202020"/>
<rect x="203" y="153.797" width="12" height="12" rx="6" fill="#FAA002"/>
<path d="M225.409 165.797V154.161H232.386V155.411H226.818V159.342H231.864V160.592H226.818V165.797H225.409ZM237.523 165.979C236.735 165.979 236.044 165.791 235.449 165.416C234.858 165.041 234.396 164.517 234.062 163.842C233.733 163.168 233.568 162.38 233.568 161.479C233.568 160.57 233.733 159.776 234.062 159.098C234.396 158.42 234.858 157.893 235.449 157.518C236.044 157.143 236.735 156.956 237.523 156.956C238.311 156.956 239 157.143 239.591 157.518C240.186 157.893 240.648 158.42 240.977 159.098C241.311 159.776 241.477 160.57 241.477 161.479C241.477 162.38 241.311 163.168 240.977 163.842C240.648 164.517 240.186 165.041 239.591 165.416C239 165.791 238.311 165.979 237.523 165.979ZM237.523 164.774C238.121 164.774 238.614 164.621 239 164.314C239.386 164.007 239.672 163.604 239.858 163.104C240.044 162.604 240.136 162.062 240.136 161.479C240.136 160.895 240.044 160.352 239.858 159.848C239.672 159.344 239.386 158.937 239 158.626C238.614 158.316 238.121 158.161 237.523 158.161C236.924 158.161 236.432 158.316 236.045 158.626C235.659 158.937 235.373 159.344 235.188 159.848C235.002 160.352 234.909 160.895 234.909 161.479C234.909 162.062 235.002 162.604 235.188 163.104C235.373 163.604 235.659 164.007 236.045 164.314C236.432 164.621 236.924 164.774 237.523 164.774ZM249.024 162.229V157.07H250.365V165.797H249.024V164.32H248.933C248.729 164.763 248.411 165.14 247.979 165.45C247.547 165.757 247.001 165.911 246.342 165.911C245.797 165.911 245.312 165.791 244.888 165.553C244.464 165.31 244.13 164.946 243.888 164.462C243.645 163.973 243.524 163.357 243.524 162.615V157.07H244.865V162.524C244.865 163.161 245.043 163.668 245.399 164.047C245.759 164.426 246.217 164.615 246.774 164.615C247.107 164.615 247.446 164.53 247.791 164.359C248.14 164.189 248.431 163.928 248.666 163.575C248.905 163.223 249.024 162.774 249.024 162.229ZM254.162 160.547V165.797H252.821V157.07H254.116V158.433H254.23C254.435 157.99 254.745 157.634 255.162 157.365C255.579 157.092 256.116 156.956 256.776 156.956C257.366 156.956 257.884 157.077 258.327 157.32C258.77 157.558 259.115 157.922 259.361 158.411C259.607 158.895 259.73 159.509 259.73 160.251V165.797H258.389V160.342C258.389 159.657 258.211 159.123 257.855 158.74C257.499 158.354 257.01 158.161 256.389 158.161C255.961 158.161 255.579 158.253 255.241 158.439C254.908 158.625 254.645 158.895 254.452 159.251C254.259 159.607 254.162 160.039 254.162 160.547ZM265.476 165.979C264.749 165.979 264.107 165.795 263.55 165.428C262.993 165.056 262.557 164.534 262.243 163.859C261.929 163.181 261.771 162.38 261.771 161.456C261.771 160.539 261.929 159.744 262.243 159.07C262.557 158.395 262.995 157.875 263.555 157.507C264.116 157.14 264.764 156.956 265.499 156.956C266.067 156.956 266.516 157.051 266.845 157.24C267.179 157.426 267.432 157.638 267.607 157.876C267.785 158.111 267.923 158.304 268.021 158.456H268.135V154.161H269.476V165.797H268.18V164.456H268.021C267.923 164.615 267.783 164.816 267.601 165.058C267.419 165.297 267.16 165.511 266.822 165.7C266.485 165.886 266.036 165.979 265.476 165.979ZM265.658 164.774C266.196 164.774 266.65 164.634 267.021 164.354C267.393 164.07 267.675 163.678 267.868 163.178C268.061 162.674 268.158 162.092 268.158 161.433C268.158 160.782 268.063 160.212 267.874 159.723C267.684 159.231 267.404 158.848 267.033 158.575C266.661 158.299 266.203 158.161 265.658 158.161C265.089 158.161 264.616 158.306 264.237 158.598C263.862 158.886 263.58 159.278 263.391 159.774C263.205 160.267 263.112 160.82 263.112 161.433C263.112 162.054 263.207 162.619 263.396 163.126C263.589 163.63 263.874 164.032 264.249 164.331C264.627 164.626 265.097 164.774 265.658 164.774ZM274.686 166.001C274.133 166.001 273.631 165.897 273.18 165.689C272.73 165.477 272.372 165.172 272.107 164.774C271.841 164.373 271.709 163.888 271.709 163.32C271.709 162.82 271.807 162.414 272.004 162.104C272.201 161.789 272.464 161.543 272.794 161.365C273.124 161.187 273.487 161.054 273.885 160.967C274.286 160.876 274.69 160.804 275.095 160.751C275.625 160.683 276.055 160.632 276.385 160.598C276.718 160.56 276.961 160.498 277.112 160.411C277.268 160.323 277.345 160.172 277.345 159.956V159.911C277.345 159.35 277.192 158.914 276.885 158.604C276.582 158.293 276.122 158.138 275.504 158.138C274.864 158.138 274.362 158.278 273.999 158.558C273.635 158.839 273.379 159.138 273.232 159.456L271.959 159.001C272.186 158.471 272.489 158.058 272.868 157.763C273.25 157.464 273.667 157.255 274.118 157.138C274.572 157.017 275.019 156.956 275.459 156.956C275.739 156.956 276.061 156.99 276.425 157.058C276.792 157.123 277.146 157.257 277.487 157.462C277.832 157.666 278.118 157.975 278.345 158.388C278.572 158.801 278.686 159.354 278.686 160.047V165.797H277.345V164.615H277.277C277.186 164.804 277.035 165.007 276.822 165.223C276.61 165.439 276.328 165.623 275.976 165.774C275.624 165.926 275.194 166.001 274.686 166.001ZM274.891 164.797C275.421 164.797 275.868 164.693 276.232 164.484C276.599 164.276 276.875 164.007 277.061 163.678C277.25 163.348 277.345 163.001 277.345 162.638V161.411C277.288 161.479 277.163 161.541 276.97 161.598C276.781 161.651 276.561 161.698 276.311 161.74C276.065 161.778 275.824 161.812 275.589 161.842C275.358 161.869 275.171 161.892 275.027 161.911C274.679 161.956 274.353 162.03 274.05 162.132C273.75 162.231 273.508 162.38 273.322 162.581C273.141 162.778 273.05 163.047 273.05 163.388C273.05 163.854 273.222 164.206 273.567 164.445C273.915 164.679 274.357 164.797 274.891 164.797ZM284.929 157.07V158.206H280.406V157.07H284.929ZM281.724 154.979H283.065V163.297C283.065 163.676 283.12 163.96 283.23 164.149C283.344 164.335 283.488 164.46 283.662 164.524C283.84 164.585 284.027 164.615 284.224 164.615C284.372 164.615 284.493 164.607 284.588 164.592C284.683 164.573 284.759 164.558 284.815 164.547L285.088 165.751C284.997 165.786 284.87 165.82 284.707 165.854C284.545 165.892 284.338 165.911 284.088 165.911C283.709 165.911 283.338 165.829 282.974 165.666C282.615 165.503 282.315 165.255 282.077 164.922C281.842 164.589 281.724 164.168 281.724 163.661V154.979ZM286.946 165.797V157.07H288.287V165.797H286.946ZM287.628 155.615C287.366 155.615 287.141 155.526 286.952 155.348C286.766 155.17 286.673 154.956 286.673 154.706C286.673 154.456 286.766 154.242 286.952 154.064C287.141 153.886 287.366 153.797 287.628 153.797C287.889 153.797 288.113 153.886 288.298 154.064C288.488 154.242 288.582 154.456 288.582 154.706C288.582 154.956 288.488 155.17 288.298 155.348C288.113 155.526 287.889 155.615 287.628 155.615ZM294.288 165.979C293.5 165.979 292.809 165.791 292.214 165.416C291.624 165.041 291.161 164.517 290.828 163.842C290.499 163.168 290.334 162.38 290.334 161.479C290.334 160.57 290.499 159.776 290.828 159.098C291.161 158.42 291.624 157.893 292.214 157.518C292.809 157.143 293.5 156.956 294.288 156.956C295.076 156.956 295.766 157.143 296.357 157.518C296.951 157.893 297.413 158.42 297.743 159.098C298.076 159.776 298.243 160.57 298.243 161.479C298.243 162.38 298.076 163.168 297.743 163.842C297.413 164.517 296.951 165.041 296.357 165.416C295.766 165.791 295.076 165.979 294.288 165.979ZM294.288 164.774C294.887 164.774 295.379 164.621 295.766 164.314C296.152 164.007 296.438 163.604 296.624 163.104C296.809 162.604 296.902 162.062 296.902 161.479C296.902 160.895 296.809 160.352 296.624 159.848C296.438 159.344 296.152 158.937 295.766 158.626C295.379 158.316 294.887 158.161 294.288 158.161C293.69 158.161 293.197 158.316 292.811 158.626C292.425 158.937 292.139 159.344 291.953 159.848C291.768 160.352 291.675 160.895 291.675 161.479C291.675 162.062 291.768 162.604 291.953 163.104C292.139 163.604 292.425 164.007 292.811 164.314C293.197 164.621 293.69 164.774 294.288 164.774ZM301.631 160.547V165.797H300.29V157.07H301.585V158.433H301.699C301.903 157.99 302.214 157.634 302.631 157.365C303.047 157.092 303.585 156.956 304.244 156.956C304.835 156.956 305.352 157.077 305.795 157.32C306.239 157.558 306.583 157.922 306.83 158.411C307.076 158.895 307.199 159.509 307.199 160.251V165.797H305.858V160.342C305.858 159.657 305.68 159.123 305.324 158.74C304.968 158.354 304.479 158.161 303.858 158.161C303.43 158.161 303.047 158.253 302.71 158.439C302.377 158.625 302.114 158.895 301.92 159.251C301.727 159.607 301.631 160.039 301.631 160.547ZM310.626 165.888C310.346 165.888 310.106 165.787 309.905 165.587C309.704 165.386 309.604 165.145 309.604 164.865C309.604 164.585 309.704 164.344 309.905 164.143C310.106 163.943 310.346 163.842 310.626 163.842C310.907 163.842 311.147 163.943 311.348 164.143C311.549 164.344 311.649 164.585 311.649 164.865C311.649 165.051 311.602 165.221 311.507 165.376C311.416 165.532 311.293 165.657 311.138 165.751C310.986 165.842 310.816 165.888 310.626 165.888ZM310.626 159.411C310.346 159.411 310.106 159.31 309.905 159.109C309.704 158.909 309.604 158.668 309.604 158.388C309.604 158.107 309.704 157.867 309.905 157.666C310.106 157.465 310.346 157.365 310.626 157.365C310.907 157.365 311.147 157.465 311.348 157.666C311.549 157.867 311.649 158.107 311.649 158.388C311.649 158.573 311.602 158.744 311.507 158.899C311.416 159.054 311.293 159.179 311.138 159.274C310.986 159.365 310.816 159.411 310.626 159.411ZM318.533 165.797V164.774L322.374 160.57C322.824 160.077 323.196 159.649 323.487 159.286C323.779 158.918 323.995 158.573 324.135 158.251C324.279 157.926 324.351 157.585 324.351 157.229C324.351 156.82 324.252 156.465 324.055 156.166C323.862 155.867 323.597 155.636 323.26 155.473C322.923 155.31 322.544 155.229 322.124 155.229C321.677 155.229 321.286 155.321 320.953 155.507C320.624 155.689 320.368 155.945 320.186 156.274C320.008 156.604 319.919 156.99 319.919 157.433H318.578C318.578 156.751 318.735 156.153 319.05 155.638C319.364 155.123 319.792 154.721 320.334 154.433C320.879 154.145 321.491 154.001 322.169 154.001C322.851 154.001 323.455 154.145 323.982 154.433C324.508 154.721 324.921 155.109 325.22 155.598C325.519 156.087 325.669 156.63 325.669 157.229C325.669 157.657 325.591 158.075 325.436 158.484C325.285 158.89 325.019 159.342 324.641 159.842C324.266 160.339 323.745 160.945 323.078 161.661L320.464 164.456V164.547H325.874V165.797H318.533ZM332.016 165.956C331.16 165.956 330.43 165.723 329.828 165.257C329.226 164.787 328.766 164.107 328.447 163.217C328.129 162.323 327.97 161.244 327.97 159.979C327.97 158.721 328.129 157.647 328.447 156.757C328.769 155.863 329.232 155.181 329.834 154.712C330.44 154.238 331.167 154.001 332.016 154.001C332.864 154.001 333.589 154.238 334.192 154.712C334.798 155.181 335.26 155.863 335.578 156.757C335.9 157.647 336.061 158.721 336.061 159.979C336.061 161.244 335.902 162.323 335.584 163.217C335.266 164.107 334.805 164.787 334.203 165.257C333.601 165.723 332.872 165.956 332.016 165.956ZM332.016 164.706C332.864 164.706 333.523 164.297 333.993 163.479C334.463 162.661 334.697 161.494 334.697 159.979C334.697 158.971 334.589 158.113 334.374 157.405C334.161 156.696 333.855 156.157 333.453 155.786C333.055 155.414 332.576 155.229 332.016 155.229C331.175 155.229 330.518 155.643 330.044 156.473C329.571 157.299 329.334 158.467 329.334 159.979C329.334 160.986 329.44 161.842 329.652 162.547C329.864 163.251 330.169 163.787 330.567 164.155C330.968 164.522 331.451 164.706 332.016 164.706ZM344.152 163.615V163.001C344.152 162.577 344.239 162.189 344.413 161.837C344.591 161.481 344.849 161.196 345.186 160.984C345.527 160.768 345.94 160.661 346.425 160.661C346.917 160.661 347.33 160.768 347.663 160.984C347.997 161.196 348.249 161.481 348.419 161.837C348.589 162.189 348.675 162.577 348.675 163.001V163.615C348.675 164.039 348.588 164.429 348.413 164.786C348.243 165.138 347.989 165.422 347.652 165.638C347.319 165.85 346.91 165.956 346.425 165.956C345.932 165.956 345.518 165.85 345.18 165.638C344.843 165.422 344.588 165.138 344.413 164.786C344.239 164.429 344.152 164.039 344.152 163.615ZM345.311 163.001V163.615C345.311 163.967 345.394 164.284 345.561 164.564C345.728 164.84 346.016 164.979 346.425 164.979C346.822 164.979 347.103 164.84 347.266 164.564C347.432 164.284 347.516 163.967 347.516 163.615V163.001C347.516 162.649 347.436 162.335 347.277 162.058C347.118 161.778 346.834 161.638 346.425 161.638C346.027 161.638 345.741 161.778 345.567 162.058C345.396 162.335 345.311 162.649 345.311 163.001ZM338.357 156.956V156.342C338.357 155.918 338.444 155.53 338.618 155.178C338.796 154.821 339.054 154.537 339.391 154.325C339.732 154.109 340.144 154.001 340.629 154.001C341.122 154.001 341.535 154.109 341.868 154.325C342.201 154.537 342.453 154.821 342.624 155.178C342.794 155.53 342.879 155.918 342.879 156.342V156.956C342.879 157.38 342.792 157.77 342.618 158.126C342.447 158.479 342.194 158.763 341.857 158.979C341.523 159.191 341.114 159.297 340.629 159.297C340.137 159.297 339.722 159.191 339.385 158.979C339.048 158.763 338.792 158.479 338.618 158.126C338.444 157.77 338.357 157.38 338.357 156.956ZM339.516 156.342V156.956C339.516 157.308 339.599 157.625 339.766 157.905C339.932 158.181 340.22 158.32 340.629 158.32C341.027 158.32 341.307 158.181 341.47 157.905C341.637 157.625 341.72 157.308 341.72 156.956V156.342C341.72 155.99 341.641 155.676 341.482 155.399C341.322 155.119 341.038 154.979 340.629 154.979C340.232 154.979 339.946 155.119 339.771 155.399C339.601 155.676 339.516 155.99 339.516 156.342ZM338.788 165.797L346.788 154.161H348.084L340.084 165.797H338.788Z" fill="#202020"/>
<circle cx="89.5" cy="141.797" r="74.5" stroke="#0082FF" stroke-width="30"/>
<mask id="path-7-inside-1_1_918" fill="white">
<path d="M89.5 52.2969C74.3468 52.2969 59.4417 56.1443 46.1817 63.4784C32.9217 70.8126 21.7409 81.3935 13.6873 94.2293C5.63363 107.065 0.970851 121.736 0.135952 136.866C-0.698948 151.996 2.32137 167.09 8.91382 180.734L89.5 141.797V52.2969Z"/>
</mask>
<path d="M89.5 52.2969C74.3468 52.2969 59.4417 56.1443 46.1817 63.4784C32.9217 70.8126 21.7409 81.3935 13.6873 94.2293C5.63363 107.065 0.970851 121.736 0.135952 136.866C-0.698948 151.996 2.32137 167.09 8.91382 180.734L89.5 141.797V52.2969Z" stroke="#FAA002" stroke-width="60" mask="url(#path-7-inside-1_1_918)"/>
<circle cx="89.5" cy="141.5" r="59.5" fill="white"/>
<circle cx="89.5" cy="141.5" r="59.5" stroke="#0082FF"/>
</svg>
